<?xml version="1.0" encoding="utf-8"?>
<!-- Generator: Adobe Illustrator 22.0.1, SVG Export Plug-In . SVG Version: 6.00 Build 0)  -->
<svg version="1.1" id="圖層_1" xmlns="http://www.w3.org/2000/svg" xmlns:xlink="http://www.w3.org/1999/xlink" x="0px" y="0px"
	 viewBox="0 0 554.6 100" style="enable-background:new 0 0 554.6 100;" xml:space="preserve">
<style type="text/css">
	.st0{fill-rule:evenodd;clip-rule:evenodd;fill:#EB685A;}
	.st1{fill-rule:evenodd;clip-rule:evenodd;fill:#FFF08F;}
	.st2{fill-rule:evenodd;clip-rule:evenodd;fill:#F5E84C;}
	.st3{fill-rule:evenodd;clip-rule:evenodd;fill:#FFF116;}
	.st4{fill-rule:evenodd;clip-rule:evenodd;fill:#FFF000;}
	.st5{fill-rule:evenodd;clip-rule:evenodd;fill:#9ACBED;}
	.st6{fill-rule:evenodd;clip-rule:evenodd;fill:#FFF9C6;}
	.st7{fill-rule:evenodd;clip-rule:evenodd;fill:#DA4350;}
	.st8{fill-rule:evenodd;clip-rule:evenodd;fill:#FFF9C7;}
	.st9{fill-rule:evenodd;clip-rule:evenodd;fill:#8DB9E3;}
	.st10{fill-rule:evenodd;clip-rule:evenodd;fill:#26479B;}
	.st11{fill-rule:evenodd;clip-rule:evenodd;fill:#90BDE5;}
	.st12{fill-rule:evenodd;clip-rule:evenodd;fill:#F5EB50;}
	.st13{fill-rule:evenodd;clip-rule:evenodd;fill:#FFFFFF;}
	.st14{fill-rule:evenodd;clip-rule:evenodd;fill:#EBA0A1;}
	.st15{fill-rule:evenodd;clip-rule:evenodd;fill:#8EC4EA;}
	.st16{fill:#231815;}
</style>
<g>
	<ellipse transform="matrix(0.5738 -0.819 0.819 0.5738 -21.403 60.8709)" class="st0" cx="47.8" cy="51" rx="39.7" ry="39.7"/>
	<path class="st1" d="M37.4,39.5c0,0-10.2,11.8,0.5,20.7L37.4,39.5z"/>
	<path class="st2" d="M45.7,29.6c0,0-5.4,7.3-5.1,9.4l-1.1,20.6l4.6,1L45.7,29.6z"/>
	<path class="st3" d="M52.8,28.2c0,0-4.2,1.3-4.3,3.4c-0.1,2.1-1.5,29.1-1.5,29.1l4.1,0.2l0.9,0l1.7-31C53.6,30,54.1,27.7,52.8,28.2
		z"/>
	<path class="st4" d="M56,30.2l-1.7,31c0,0,4.7-5.9,5.2-15.3c0,0-1.1-3.4-1-5.2c0.1-1.7,0.8-2.9,0.5-4.6C58.6,34.4,56,30.2,56,30.2z
		"/>
	<path class="st5" d="M32.5,46.3l3.9,0c0,0,8.9,11.8,19.8,0l3.7,0l-1.5,20.3c0,0-1.5,5.4-5.8,2.7c-4.4-2.7-11.4-1.7-13.3,0.2
		c-1.9,1.9-5.8-1.1-5.4-2.9L32.5,46L32.5,46.3z"/>
	<rect x="43.2" y="56" class="st6" width="3" height="6.7"/>
	<rect x="47.5" y="56" class="st7" width="3" height="6.7"/>
	<polygon class="st7" points="43.2,56 44.9,56 44.9,58.5 47.5,58.5 47.5,59.9 44.7,59.9 44.7,62.7 43.2,62.7 	"/>
	<polygon class="st8" points="49,56 49,58.5 47.5,58.5 47.5,59.9 49,59.9 49,62.7 50.5,62.7 50.5,56 	"/>
	<rect x="17" y="17.7" transform="matrix(0.7433 -0.6689 0.6689 0.7433 -7.4908 16.4157)" class="st9" width="1.3" height="0.6"/>
	<polygon class="st10" points="17,18.2 16.9,18.2 17.3,18.7 18.4,17.7 18,17.2 16.9,18.2 16.9,18.2 17,18.2 17,18.2 17.9,17.4 
		18.3,17.7 17.3,18.6 17,18.2 17,18.2 17,18.2 	"/>
	
		<rect x="17.9" y="14.8" transform="matrix(0.7434 -0.6689 0.6689 0.7434 -5.2904 16.7151)" class="st11" width="2.5" height="0.9"/>
	<polygon class="st10" points="17.9,15.8 17.8,15.8 18.5,16.5 20.5,14.7 19.8,14 17.8,15.8 17.8,15.8 17.9,15.8 17.9,15.8 
		19.8,14.1 20.3,14.7 18.5,16.4 17.9,15.7 17.9,15.8 17.9,15.8 	"/>
	
		<rect x="19.8" y="15.2" transform="matrix(0.7432 -0.6691 0.6691 0.7432 -5.9856 18.0873)" class="st12" width="1.6" height="3.4"/>
	<polygon class="st10" points="18.9,16.1 18.8,16.2 21.1,18.7 22.4,17.6 20,15 18.8,16.1 18.8,16.2 18.9,16.1 18.9,16.2 20,15.1 
		22.2,17.6 21.1,18.5 18.9,16.1 18.9,16.1 18.9,16.2 	"/>
	<rect x="18" y="18" transform="matrix(0.7435 -0.6688 0.6688 0.7435 -7.7849 16.9887)" class="st13" width="0.5" height="1.2"/>
	<polygon class="st10" points="18.9,18.9 18.8,18.9 18.5,19.2 17.7,18.4 18,18.1 18.8,19 18.9,18.9 18.8,18.9 18.9,18.9 18.9,18.9 
		18,17.9 17.6,18.3 18.5,19.3 18.9,18.9 18.9,18.9 	"/>
	<rect x="18.3" y="19" transform="matrix(0.7432 -0.669 0.669 0.7432 -8.2421 17.7711)" class="st14" width="1.5" height="1.3"/>
	<polygon class="st10" points="20,19.6 20,19.6 18.9,20.5 18.1,19.7 19.2,18.7 20,19.6 20,19.6 20,19.6 20,19.6 20.1,19.6 
		19.2,18.6 18,19.6 18.9,20.7 20.1,19.6 20.1,19.6 	"/>
	<rect x="18.2" y="18.8" transform="matrix(0.7432 -0.669 0.669 0.7432 -7.5678 19.153)" class="st15" width="6" height="1.3"/>
	<polygon class="st10" points="23.8,17.9 23.8,17.9 19.4,21.9 18.6,21 23,17 23.8,18 23.8,17.9 23.8,17.9 23.8,17.9 23.9,17.9 
		23,16.9 18.4,21 19.4,22 23.9,17.9 23.9,17.9 	"/>
	<rect x="19.5" y="18.2" transform="matrix(0.7432 -0.669 0.669 0.7432 -7.3392 18.3403)" class="st13" width="1.5" height="1"/>
	<polygon class="st10" points="21.1,18.6 21.1,18.6 20,19.5 19.4,18.9 20.4,18 21.1,18.7 21.1,18.6 21.1,18.6 21.1,18.6 21.1,18.6 
		20.4,17.8 19.3,18.8 20,19.7 21.2,18.6 21.1,18.6 	"/>
	<path class="st14" d="M21.3,20.4c0.3,0.3,0.3,0.9-0.1,1.2c-0.3,0.3-0.9,0.3-1.2-0.1c-0.3-0.3-0.3-0.9,0.1-1.2
		C20.5,20.1,21,20.1,21.3,20.4z"/>
	<path class="st10" d="M21.3,20.4L21.3,20.4c0.1,0.2,0.2,0.4,0.2,0.6c0,0.2-0.1,0.4-0.3,0.6c-0.2,0.1-0.3,0.2-0.5,0.2
		c-0.2,0-0.4-0.1-0.6-0.3c-0.1-0.2-0.2-0.3-0.2-0.5c0-0.2,0.1-0.4,0.3-0.6c0.2-0.1,0.3-0.2,0.5-0.2C20.9,20.2,21.1,20.3,21.3,20.4
		L21.3,20.4L21.3,20.4c-0.1-0.2-0.4-0.3-0.6-0.3c-0.2,0-0.4,0.1-0.6,0.2c-0.2,0.2-0.3,0.4-0.3,0.7c0,0.2,0.1,0.4,0.2,0.6
		c0.2,0.2,0.4,0.3,0.7,0.3c0.2,0,0.4-0.1,0.6-0.2c0.2-0.2,0.3-0.4,0.3-0.7C21.6,20.8,21.5,20.6,21.3,20.4L21.3,20.4z"/>
	<path class="st14" d="M23.4,18.6c0.3,0.3,0.3,0.9-0.1,1.2c-0.3,0.3-0.9,0.3-1.2-0.1c-0.3-0.3-0.3-0.9,0.1-1.2
		C22.5,18.2,23.1,18.2,23.4,18.6z"/>
	<path class="st10" d="M23.4,18.6L23.4,18.6c0.1,0.2,0.2,0.4,0.2,0.6c0,0.2-0.1,0.4-0.3,0.6c-0.2,0.1-0.3,0.2-0.5,0.2
		c-0.2,0-0.4-0.1-0.6-0.3c-0.1-0.2-0.2-0.3-0.2-0.5c0-0.2,0.1-0.4,0.3-0.6c0.2-0.1,0.3-0.2,0.5-0.2C23,18.4,23.2,18.5,23.4,18.6
		L23.4,18.6L23.4,18.6c-0.1-0.2-0.4-0.3-0.6-0.3c-0.2,0-0.4,0.1-0.6,0.2c-0.2,0.2-0.3,0.4-0.3,0.7c0,0.2,0.1,0.4,0.2,0.6
		c0.2,0.2,0.4,0.3,0.7,0.3c0.2,0,0.4-0.1,0.6-0.2c0.2-0.2,0.3-0.4,0.3-0.7C23.6,18.9,23.6,18.7,23.4,18.6L23.4,18.6z"/>
</g>
<g>
	<path class="st16" d="M152.5,73.3H143v5.6h-8.3v-5.6h-10v-6.1h10v-3.7h-5.6c-1.9-0.2-3-0.7-3.3-1.6c-0.2-1.1-0.2-1.6,0-1.6V43.3
		c0-1.2,0.5-2,1.4-2.1c0.7-0.3,1.2-0.4,1.4-0.2h6.1v-3.8h-10.6v-6.1h10.6v-4.7h8.3v4.7h9.5v6.1H143v3.8h6.1c1.7,0,2.7,0.5,3.1,1.6
		c0.2,0.9,0.3,1.5,0.3,1.6v15.9c-0.2,1.9-0.8,2.9-1.9,3l-1.9,0.2H143v3.7h9.5V73.3z M143.6,57.3v-5.2V47h-9.5v10.3H143.6z
		 M143.6,52.2c-0.2,0.9-0.6,1.8-1.4,2.6c-0.9,0.6-1.9,1-3.1,1.2c-1.3-0.2-2.3-0.5-3.1-1.2c-0.9-0.8-1.4-1.6-1.4-2.6
		c0-1.1,0.5-2,1.4-2.6c0.7-0.8,1.8-1.2,3.1-1.2c1.1,0,2.1,0.4,3.1,1.2C142.9,50.2,143.4,51.1,143.6,52.2z M183.1,42.8h-28.9v-6.1
		h6.1l0.6-2.8h-4.4v-6.1h6.7v-1.4h7.8v1.4h6.1c2,0.2,3.2,0.8,3.6,1.9c0.2,1.1,0.3,1.7,0.3,1.9v5.2h2.2V42.8z M183.6,75.1h-6.1v3.8
		h-8.3v-3.8h-14.5V69h3.3v-3.8c0.2-2.3,1.1-3.7,2.8-4.2c1.5-0.5,2.4-0.6,2.8-0.5h5.6v-1.9h8.3v1.9h3.9v6.1h-3.9V69h6.1V75.1z
		 M181.9,55c-0.2,1.6-0.9,2.5-2.2,2.8c-1.3,0.3-2,0.5-2.2,0.5h-16.1c-2.8-0.2-4.4-0.8-4.7-1.9c-0.4-1.1-0.5-1.7-0.3-1.9v-6.6
		c0.2-1.9,0.9-3,2.2-3.3c1.3-0.5,2-0.6,2.2-0.5H178c2.2,0.2,3.4,0.8,3.6,1.9c0.2,1.1,0.3,1.7,0.3,1.9V55z M173.6,52.2v-1.9h-8.9v1.9
		H173.6z M169.2,69v-2.3h-2.2V69H169.2z M171.9,36.7v-2.8h-2.8l-0.6,2.8H171.9z"/>
	<path class="st16" d="M256.5,38.6h-26.1v7h23.4v7h-56.2v-7h23.9v-7h-26.1v-7h26.1v-5.6h8.9v5.6h26.1V38.6z M253.7,76.5
		c-0.2,1.7-0.9,2.7-2.2,3c-1.3,0.2-2,0.2-2.2,0.2h-48.9c-1.7-0.2-2.6-0.5-2.8-1.2c-0.2-0.8-0.2-1.2,0-1.2V60.6c0-1.9,0.6-3,1.9-3.3
		c1.1-0.5,1.8-0.6,1.9-0.5h48.9c2,0,3.2,0.5,3.3,1.6c0,0.9,0,1.5,0,1.6V76.5z M244.8,72.3v-8h-38.9v8H244.8z"/>
	<path class="st16" d="M326.5,45.1H321c2,1.7,2.7,3.7,1.9,5.9c-0.9,2-3.1,3.2-6.4,3.5c-3.7-0.3-5.8-1.6-6.4-3.8
		c-0.7-2.2,0.1-4.1,2.5-5.6h-12.2v10.3h16.1c3.9,0.2,6.1,1.1,6.7,2.8c0.6,1.6,0.7,2.5,0.6,2.8v12.7c-0.4,3.1-1.6,4.9-3.6,5.4
		c-2.2,0.6-3.4,0.9-3.6,0.7h-40c-4.1-0.3-6.3-1.3-6.7-2.8c-0.4-1.7-0.4-2.7,0-2.8V60.6c0.2-2.3,1.1-3.8,2.8-4.5
		c1.5-0.6,2.4-0.9,2.8-0.7h16.7V45.1c-2.6,2.5-5.1,4.5-7.5,6.1c-2.6,1.4-4,2.2-4.2,2.3h-11.7c2.6-1.7,4.9-3.5,7-5.4
		c2.2-1.9,3.4-2.9,3.6-3h-11.7v-7h24.5v-2.8c-5.9,0.2-11,0.2-15.3,0.2c-4.4,0.2-6.8,0.2-7,0.2v-6.6c8.7,0.2,19.6-0.3,32.5-1.4
		c12.8-1.1,19.9-1.7,21.4-1.9v6.6c-5.2,0.5-10.3,0.9-15.3,1.4c-5,0.5-7.7,0.8-8.1,0.9v3.3h26.1V45.1z M314.9,64.3v-1.4h-37.3v1.4
		H314.9z M314.9,72.8v-1.4h-37.3v1.4H314.9z"/>
	<path class="st16" d="M398.8,45.1h-26.1V47h17.8c2.8,0,4.4,0.5,4.7,1.4c0.2,0.8,0.3,1.3,0.3,1.4v16.9c-0.2,2.7-0.7,4.2-1.7,4.7
		l-1.7,0.5c1.3,0.8,1.8,2.2,1.4,4.2c-0.6,1.9-2.3,3-5.3,3.3c-3.3-0.3-5.5-1.3-6.4-3c-0.7-1.9-0.6-3.4,0.3-4.5h-22.8
		c-1.3,2-2.8,3.8-4.4,5.2c-1.9,1.4-2.8,2.2-2.8,2.3H341c2.2-1.9,4.3-3.6,6.1-5.2c1.7-1.6,2.6-2.3,2.8-2.3h-4.4
		c-2.8-0.2-4.3-0.8-4.4-1.9c-0.2-1.1-0.2-1.7,0-1.9V50.8c0.2-2.3,1-3.6,2.5-3.8c1.3-0.2,2.1-0.2,2.5,0h18.4v-1.9h-27.8v-7.5h15v-1.4
		H341v-7.5h10.6v-2.8h8.3v2.8h15.6v-2.8h8.3v2.8H396v7.5h-12.2v1.4h15V45.1z M364.4,55.9V54h-14.5v1.9H364.4z M364.4,64.3v-1.4
		h-14.5v1.4H364.4z M375.5,37.6v-1.4h-15.6v1.4H375.5z M387.2,55.9V54h-14.5v1.9H387.2z M387.2,64.3v-1.4h-14.5v1.4H387.2z"/>
	<path class="st16" d="M468.9,62.5h-8.3c2.2,1.6,2.8,3.4,1.7,5.4c-1.3,2-3.5,3.2-6.7,3.5c-3.5-0.3-5.5-1.6-5.8-3.8
		c-0.6-2.2,0.5-3.9,3.1-5.2h-10v9.4h25v7h-57.3v-7h21.7v-9.4h-7.8c2.8,1.1,4,2.8,3.6,5.2c-0.4,2.2-2.7,3.4-7,3.8
		c-3.2-0.3-4.9-1.7-5.3-4.2c-0.4-2.3,0.6-3.9,3.1-4.7h-9.5V55h22.8v-3.3h-19.5v-7h52.8v7h-22.8V55h26.1V62.5z M471.7,42.3h-13.9
		l-10-9.4h-33.4v-7.5h35c2.4,0.2,4.4,0.8,5.8,1.9c1.5,1.1,2.3,1.7,2.5,1.9L471.7,42.3z M428.3,38.6c-0.2,1.4-0.8,2.6-1.9,3.5
		c-1.1,0.9-2.3,1.5-3.6,1.6c-1.9-0.2-3.3-0.7-4.4-1.6c-1.1-0.9-1.7-2.1-1.7-3.5c0-1.2,0.6-2.3,1.7-3.3c1.1-0.9,2.6-1.4,4.4-1.4
		c1.3,0,2.5,0.5,3.6,1.4C427.5,36.2,428.1,37.3,428.3,38.6z"/>
	<path class="st16" d="M539,58.3h-11.1c0.6,0.9,0.7,1.7,0.6,2.3c-0.4,0.5-0.6,0.8-0.6,0.9h5.6c1.5,0,2.4,0.4,2.8,1.2
		c0.4,0.6,0.6,1,0.6,1.2v12.2c-0.2,1.2-0.8,2-1.9,2.3l-1.9,0.5h-46.2c-1.7-0.2-2.6-0.6-2.8-1.4c-0.2-0.9-0.2-1.4,0-1.4v-9.4
		c0-1.4,0.6-2.3,1.7-2.6c0.9-0.3,1.5-0.4,1.7-0.2h-7.8l21.7-5.6H480v-4.7h25.6v-1.4h-21.7V47h21.7v-0.9h8.3V47h20.6v5.2h-3.3
		l-2.8,1.4H539V58.3z M539.5,32.9h-13.3v1.4h7.2c2,0,3.2,0.4,3.6,1.2c0.2,0.6,0.3,1,0.3,1.2v5.6c-0.2,1.4-0.8,2.3-1.9,2.6l-1.9,0.2
		h-47.3c-1.5-0.2-2.3-0.5-2.5-1.2c-0.4-0.8-0.5-1.2-0.3-1.2v-6.6c0-1.2,0.6-1.9,1.7-1.9c0.9-0.2,1.5-0.2,1.7,0h7.8v-1.4h-13.3v-4.7
		h13.3v-2.3h8.3v2.3h15v-2.3h8.3v2.3h13.3V32.9z M498.9,40V39h-6.7V40H498.9z M527.9,68.1v-1.4h-35.6v1.4H527.9z M527.9,74.2v-1.4
		h-35.6v1.4H527.9z M517.8,34.3v-1.4h-15v1.4H517.8z M519.5,61.5c-1.1-0.9-1.1-2,0-3.3h-3.9l-10,3.3H519.5z M512.8,40V39h-5.6V40
		H512.8z M519.5,52.2h-5.6V54L519.5,52.2z M528.4,40V39h-6.7V40H528.4z"/>
</g>
</svg>
