<?xml version="1.0" encoding="utf-8"?>
<!-- Generator: Adobe Illustrator 22.0.1, SVG Export Plug-In . SVG Version: 6.00 Build 0)  -->
<svg version="1.1" id="圖層_1" xmlns="http://www.w3.org/2000/svg" xmlns:xlink="http://www.w3.org/1999/xlink" x="0px" y="0px"
	 viewBox="0 0 1920 100" style="enable-background:new 0 0 1920 100;" xml:space="preserve">
<style type="text/css">
	.st0{clip-path:url(#SVGID_2_);}
	.st1{fill-rule:evenodd;clip-rule:evenodd;fill:#FFFFFF;}
	.st2{opacity:0.6;}
	.st3{fill:#666666;}
	.st4{fill:#4DFF5D;}
	.st5{fill-rule:evenodd;clip-rule:evenodd;fill:#FFF8A6;stroke:#231815;stroke-width:0.216;stroke-miterlimit:22.9256;}
	.st6{fill-rule:evenodd;clip-rule:evenodd;fill:#D86933;}
	.st7{fill-rule:evenodd;clip-rule:evenodd;fill:#F1EB44;}
	.st8{fill-rule:evenodd;clip-rule:evenodd;fill:#0A0706;}
	.st9{fill-rule:evenodd;clip-rule:evenodd;fill:#FFF000;}
	.st10{fill-rule:evenodd;clip-rule:evenodd;fill:#EB685A;}
	.st11{fill-rule:evenodd;clip-rule:evenodd;fill:#F2BF65;}
	.st12{fill-rule:evenodd;clip-rule:evenodd;fill:#BA3121;}
	.st13{fill-rule:evenodd;clip-rule:evenodd;fill:#231815;}
	.st14{fill-rule:evenodd;clip-rule:evenodd;fill:#9ACBED;}
	.st15{fill-rule:evenodd;clip-rule:evenodd;fill:#FFF9C6;}
	.st16{fill-rule:evenodd;clip-rule:evenodd;fill:#DA4350;}
	.st17{fill-rule:evenodd;clip-rule:evenodd;fill:#FFF9C7;}
	.st18{fill-rule:evenodd;clip-rule:evenodd;fill:#91C3E9;}
	.st19{fill-rule:evenodd;clip-rule:evenodd;fill:#EB6B60;}
	.st20{fill-rule:evenodd;clip-rule:evenodd;fill:#224394;}
	.st21{fill-rule:evenodd;clip-rule:evenodd;fill:#F2A5A0;}
	.st22{fill-rule:evenodd;clip-rule:evenodd;fill:#AE4652;}
	.st23{fill-rule:evenodd;clip-rule:evenodd;fill:#B92F47;}
	.st24{fill-rule:evenodd;clip-rule:evenodd;fill:#C83750;}
	.st25{fill-rule:evenodd;clip-rule:evenodd;fill:#FBFCFB;}
	.st26{fill-rule:evenodd;clip-rule:evenodd;fill:#F4B4A1;}
	.st27{fill-rule:evenodd;clip-rule:evenodd;fill:#9BC2E7;}
	.st28{fill-rule:evenodd;clip-rule:evenodd;fill:#EB706A;}
	.st29{fill-rule:evenodd;clip-rule:evenodd;fill:#EFEB58;}
	.st30{fill-rule:evenodd;clip-rule:evenodd;fill:#EB9A85;}
	.st31{fill-rule:evenodd;clip-rule:evenodd;fill:#EC745D;}
	.st32{fill-rule:evenodd;clip-rule:evenodd;fill:#5584C4;}
	.st33{fill-rule:evenodd;clip-rule:evenodd;fill:#A2D6F1;}
	.st34{fill-rule:evenodd;clip-rule:evenodd;fill:#68B739;}
	.st35{fill-rule:evenodd;clip-rule:evenodd;fill:#FFF08F;}
	.st36{fill-rule:evenodd;clip-rule:evenodd;fill:#F5E84C;}
	.st37{fill-rule:evenodd;clip-rule:evenodd;fill:#FFF116;}
	.st38{fill-rule:evenodd;clip-rule:evenodd;fill:#F4E85C;}
	.st39{fill-rule:evenodd;clip-rule:evenodd;fill:#26479B;}
	.st40{fill-rule:evenodd;clip-rule:evenodd;fill:#8DB9E3;}
	.st41{fill-rule:evenodd;clip-rule:evenodd;fill:#90BDE5;}
	.st42{fill-rule:evenodd;clip-rule:evenodd;fill:#F5EB50;}
	.st43{fill-rule:evenodd;clip-rule:evenodd;fill:#EBA0A1;}
	.st44{fill-rule:evenodd;clip-rule:evenodd;fill:#8EC4EA;}
	.st45{fill-rule:evenodd;clip-rule:evenodd;stroke:#000000;stroke-width:0.216;stroke-miterlimit:22.9256;}
	.st46{fill-rule:evenodd;clip-rule:evenodd;fill:#D797C0;}
	.st47{fill-rule:evenodd;clip-rule:evenodd;fill:#3270B6;}
	.st48{fill-rule:evenodd;clip-rule:evenodd;fill:#ACCD60;}
	.st49{fill:#FFFFFF;}
	.st50{fill:#231815;}
	.st51{opacity:0.9;fill:#FFFFFF;}
	.st52{opacity:0.9;}
	.st53{fill:#DF9C10;}
	.st54{fill:#4D4D4D;}
	.st55{fill:#808080;}
	.st56{fill:#B2B2B2;}
	.st57{fill:#E5E5E5;}
	.st58{fill:#606060;}
	.st59{fill:#333333;}
	.st60{fill:none;stroke:#808080;stroke-width:0.4823;}
	.st61{fill:none;stroke:#808080;stroke-width:0.3267;}
	.st62{opacity:0.8;fill:#606060;}
	.st63{fill-rule:evenodd;clip-rule:evenodd;fill:#7C4400;stroke:#231815;stroke-width:7.482700e-02;stroke-miterlimit:22.9256;}
	.st64{opacity:0.2;fill-rule:evenodd;clip-rule:evenodd;fill:#FFF000;}
	.st65{opacity:0.2;}
	.st66{fill-rule:evenodd;clip-rule:evenodd;stroke:#000000;stroke-width:2.504000e-02;stroke-miterlimit:22.9256;}
	.st67{fill-rule:evenodd;clip-rule:evenodd;stroke:#000000;stroke-width:2.544400e-02;stroke-miterlimit:22.9256;}
	.st68{opacity:0.5;fill:#E5E5E5;}
	.st69{fill:url(#SVGID_13_);}
	.st70{fill:url(#SVGID_14_);}
	.st71{fill:#38CF00;}
	.st72{fill:#0673F7;}
	.st73{fill:#989898;stroke:#000000;stroke-miterlimit:10;}
	.st74{fill:#B2B2B2;stroke:#000000;stroke-miterlimit:10;}
	.st75{fill:#FFEBCC;}
	.st76{fill:#7C4400;stroke:#231815;stroke-width:3.010600e-02;stroke-miterlimit:22.9256;}
	.st77{opacity:0.8;fill:#E5E5E5;}
	.st78{fill:#1A1A1A;}
	.st79{fill:#E9EAEB;}
	.st80{fill:#B9BBC1;}
	.st81{fill:#FDC74F;}
	.st82{fill:#FCA629;}
	.st83{fill:#E60D28;}
	.st84{fill:#F2F2F2;}
	.st85{fill:#FC502A;}
	.st86{fill:#8B8996;}
	.st87{fill:#706F7F;}
	.st88{fill:#00C6C8;}
	.st89{fill:#0FB0C0;}
	.st90{fill:#D5CEC2;}
	.st91{fill:#C7E2FC;}
	.st92{fill:#EBF7FE;}
	.st93{fill:#FADFB2;}
	.st94{fill:#C16B3F;}
	.st95{fill:#E39854;}
	.st96{fill:#E7E4DD;}
	.st97{fill:#FFD782;stroke:#231815;stroke-width:7;stroke-miterlimit:22.9256;}
	.st98{fill:#FFAF5F;stroke:#231815;stroke-width:7;stroke-miterlimit:22.9256;}
	.st99{fill:#B4E1FA;stroke:#231815;stroke-width:7;stroke-miterlimit:22.9256;}
	.st100{fill:#A0D2F0;stroke:#231815;stroke-width:7;stroke-miterlimit:22.9256;}
	.st101{fill:#DAF0FD;stroke:#231815;stroke-width:7;stroke-miterlimit:22.9256;}
	.st102{fill:#D2555A;stroke:#231815;stroke-width:7;stroke-miterlimit:22.9256;}
	.st103{fill:#C7CFE2;stroke:#231815;stroke-width:7;stroke-miterlimit:22.9256;}
	.st104{fill:#FF6464;stroke:#231815;stroke-width:7;stroke-miterlimit:22.9256;}
	.st105{fill:#EFF2FA;stroke:#231815;stroke-width:7;stroke-miterlimit:22.9256;}
	.st106{fill:#8F96AC;stroke:#231815;stroke-width:7;stroke-miterlimit:22.9256;}
	.st107{fill:#AFB9D2;stroke:#231815;stroke-width:7;stroke-miterlimit:22.9256;}
	.st108{fill-rule:evenodd;clip-rule:evenodd;fill:#E5E5E5;}
	.st109{opacity:0.9;fill:#B47A14;}
	.st110{opacity:0.8;fill:#B47A14;}
	.st111{opacity:0.8;fill-rule:evenodd;clip-rule:evenodd;fill:#FFF8A6;}
	
		.st112{opacity:0.54;fill-rule:evenodd;clip-rule:evenodd;fill:#FFF8A6;stroke:#231815;stroke-width:3.010600e-02;stroke-miterlimit:22.9256;}
	.st113{fill-rule:evenodd;clip-rule:evenodd;fill:#FFF8A6;stroke:#231815;stroke-width:7.482700e-02;stroke-miterlimit:22.9256;}
	.st114{fill:#FFF8A6;stroke:#231815;stroke-width:3.010600e-02;stroke-miterlimit:22.9256;}
	.st115{opacity:0.7;fill:#FFFFFF;}
	.st116{fill:#FF00FF;stroke:#000000;stroke-miterlimit:10;}
</style>
<rect y="1" class="st112" width="1920" height="100"/>
<g>
	<path class="st18" d="M2.3,64.8V91c0,0,2.1-0.4,6.1,0c3.9,0.4,10.3,3.9,15,2.7c4.6-1.2,7.8-5.5,11-7c3.2-1.6,17.4-2.7,20.6-3.1
		c3.2-0.4,6.4-4.7,3.6-5.9c-2.8-1.2-28.5,1.6-33.5-0.4c-5-2-3.9-3.9-1.8-5.1c2.1-1.2,29.2-0.8,32-0.8c2.8,0,9.6-7.8,2.5-9
		c0,0-5.7,2.7-12.8,2.3c-7.1-0.4-17.1,1.6-19.6-2.3c0,0-4.3-7.8-10.3,0C15.1,62.4,13.7,67.9,2.3,64.8z"/>
	<path class="st13" d="M22.4,64.4c0,0.8-0.6,1.4-1.2,1.4c-0.7,0-1.2-0.6-1.2-1.4s0.6-1.4,1.2-1.4C21.9,63,22.4,63.6,22.4,64.4z"/>
	<polygon class="st19" points="24.5,74 25.8,76 26.7,75.1 28.2,75.8 29.5,74.4 31.2,75.8 32.9,75.1 33.6,75.6 34,75.9 35.2,74.5 
		36.6,75.9 38.5,74.4 40.1,75.8 42,75 43.6,75.8 45.4,74.5 46.7,75.8 48.9,74.4 50.6,75.8 52.3,75 53.8,75.8 54.9,75.1 55.7,75.6 
		56.1,75.9 57.6,74.1 56.8,73.3 55.9,74.4 55.2,73.9 55,73.7 53.8,74.5 52.4,73.8 50.8,74.4 49,73 46.9,74.4 45.5,72.9 43.5,74.4 
		42,73.8 40.2,74.4 38.5,73 36.7,74.4 35.2,72.9 33.9,74.3 33.3,73.9 33.1,73.7 31.4,74.4 29.5,73 28,74.4 26.6,73.7 26,74.3 
		25.4,73.4 	"/>
	<path class="st20" d="M138.6,67c0,0,0.5,1.9,1.3,0.7c0.8-1.1,0.9-2.5,1.6-2.9c0.7-0.4,1.4,0.2,2.3,0.6c0.8,0.4,1.1-0.5,1.5-2.1
		c0.3-1.5,1.7-1.6,2.5-1.2c0.8,0.4,0.9-0.3,1.1-1.2c0.2-0.9,0.9-2.4,2.5-2.1c1.6,0.3,0.8-1,0.7-2.1c0,0,0.3-0.4,0.5,0
		c0.2,0.4,0.8,2.5-0.2,3.1c-1,0.6-1.8,0.2-2,0.6c-0.2,0.5-0.9,3.4-2.5,3c-1.7-0.4-2,0.8-2.4,2.4c-0.4,1.6-2,1-2.8,0.6
		c-0.8-0.4-1.1,0.9-1.6,1.6c-0.4,0.7-2.2,2.7-3.1,0.2C137.2,65.6,138.6,67,138.6,67z"/>
	<path class="st1" d="M92.4,42.6c0,0,2.5,1.2,3.7,2.4c1.2,1.2,2.3,2.8,2.6,3.9c0.4,1.1,6.6-0.8,6.4-3.3c-0.2-2.1-0.1-2.1-0.1-2.1
		c0,0-3.7-0.4-4-3c-0.4-2.6-2.9-4.1-1.8-5.6C100.2,33.3,91.5,40.4,92.4,42.6z"/>
	<path class="st21" d="M91.6,42.9c0,0,2.7,0.6,3.6,0.1c0.9-0.5,0.9-2.8,0.9-2.8l1.3,0.3L97,39.6l1.4-0.8l1.1-0.6l0.1-2.9l-0.7-1.4
		C98.8,33.8,91.3,36.4,91.6,42.9z"/>
	<path class="st21" d="M98.5,49.9c0,0,1.1-1.7,2.8-2.4c1.7-0.7,1.8-1.3,2.6-2.5c0.7-1.2,1.5-1.9,1.5-1.9
		C105.3,43.1,108.5,51.3,98.5,49.9z"/>
	<path class="st22" d="M94.1,39.6L94.1,39.6c0.1,0,0.6,0,1.2-0.3c0.3-0.1,0.5-0.3,0.8-0.6c0.2-0.3,0.3-0.7,0.3-1.2l0-0.3
		c0-0.2-0.1-0.3-0.3-0.3c-0.1,0-0.3,0.2-0.2,0.3l0,0.2c0,0.4-0.1,0.7-0.2,0.9c-0.2,0.3-0.6,0.5-0.9,0.6C94.4,39,94.2,39,94.1,39h0
		c-0.1,0-0.3,0.1-0.3,0.3C93.8,39.5,94,39.6,94.1,39.6z"/>
	<path class="st22" d="M93.9,35.5l0,0.2c0,0.5,0.1,2.3,1.4,3.4c0.1,0.1,0.3,0.1,0.4-0.1c0.1-0.1,0.1-0.3-0.1-0.4
		c-1.1-0.9-1.2-2.5-1.2-2.9l0-0.1c0-0.2-0.1-0.3-0.2-0.3C94.1,35.3,94,35.4,93.9,35.5z"/>
	<path class="st22" d="M96.3,43.6l0-0.1L96.3,43.6L96.3,43.6l0-0.1L96.3,43.6L96.3,43.6c0.1,0,0.6,0,1.3,0.8
		c0.4,0.4,0.4,0.7,0.4,1.2c0,0.2,0,0.5,0.1,0.7c0.1,0.3,0.2,0.5,0.4,0.7c0.1,0.1,0.3,0.1,0.4,0c0.1-0.1,0.1-0.3,0-0.4
		c-0.2-0.2-0.2-0.3-0.3-0.5c-0.1-0.2,0-0.5-0.1-0.9c0-0.4-0.2-0.8-0.5-1.2c-0.8-0.9-1.4-1-1.6-1l-0.1,0c-0.1,0-0.3,0.2-0.2,0.3
		C96,43.5,96.2,43.7,96.3,43.6z"/>
	<path class="st23" d="M98,40.8L98,40.8L98,40.8L98,40.8L98,40.8L98,40.8L98,40.8c0.1,0,0.5,0,0.9,0.6c0.1,0.1,0.3,0.1,0.4,0
		c0.1-0.1,0.1-0.3,0-0.4c-0.6-0.7-1.2-0.7-1.3-0.7l-0.1,0c-0.1,0-0.3,0.2-0.2,0.3C97.7,40.7,97.8,40.9,98,40.8z"/>
	<path class="st24" d="M100.2,42.6c0,0-0.2,0.2-0.2,0.4c0,0.2,0.1,0.5,0.4,0.8l0.3,0.2l0.3,0.1l0.1,0c0,0,0.1,0,0.2,0.1
		c0.1,0.1,0.3,0.2,0.6,0.5l0.3-0.5c-0.3-0.3-0.5-0.4-0.7-0.5c-0.2-0.1-0.3-0.1-0.4-0.1l-0.1,0v0l0,0h0v0l0,0l0,0l-0.1-0.1
		c-0.1-0.1-0.2-0.2-0.2-0.3l0-0.1h-0.1l0,0.1l0-0.1h-0.1l0,0.1L100.2,42.6z"/>
	<polygon class="st25" points="111.2,75.9 107.8,96.2 126.7,100 130.1,79.7 	"/>
	<polygon class="st26" points="105.9,69.9 111.2,75.9 130.1,79.7 124.1,73.5 	"/>
	<polygon class="st27" points="105.9,69.9 111.2,75.9 107.8,96.2 102.9,87.8 	"/>
	<polygon class="st15" points="113.4,80.7 111.1,94.3 116.6,95.3 118.9,81.8 	"/>
	<polygon class="st16" points="121.3,82.3 126.8,83.3 124.5,96.9 119.1,95.8 	"/>
	<polygon class="st16" points="113.4,80.7 116.6,81.3 115.7,86.5 120.4,87.4 120,90.1 114.8,89 113.9,94.8 111.1,94.3 	"/>
	<polygon class="st17" points="124,82.8 123.2,88 120.4,87.4 120,90.1 122.7,90.6 121.8,96.4 124.5,96.9 126.8,83.3 	"/>
	<polygon class="st28" points="60.9,40.6 58,41.3 58,38.7 55.2,40 52.1,38.7 52.1,43.1 50.4,44.2 52.3,46.3 51.9,49.3 54.6,49.3 
		59,53.2 59.8,47.8 63.6,45.9 60.4,44 	"/>
	<polygon class="st29" points="60.9,45.7 59,44.2 59.9,42.4 57.8,42.4 56.5,41.1 55.9,43.4 54.5,41.1 54.5,43.4 53.1,44.2 
		54.6,45.7 54.6,47.3 56.3,47.3 58.2,49.6 58.5,46.4 	"/>
	<polygon class="st30" points="61.4,2.2 66,0 64.4,6 	"/>
	<polygon class="st31" points="218.9,57.8 221.3,52.9 223.4,58.7 	"/>
	<path class="st32" d="M80,16.6c0,1.6-1.1,2.8-2.5,2.8c-1.4,0-2.5-1.3-2.5-2.8c0-1.6,1.1-2.8,2.5-2.8C78.8,13.8,80,15,80,16.6z"/>
	<path class="st32" d="M195.3,64.2c0,1.6-1.1,2.8-2.5,2.8c-1.4,0-2.5-1.3-2.5-2.8c0-1.6,1.1-2.8,2.5-2.8
		C194.1,61.4,195.3,62.6,195.3,64.2z"/>
	<path class="st33" d="M94.3,8.3c0,0,1.2-1,2-2.1s1.5-3.8,3.6-3.4c2.1,0.4,2.5-0.8,2.8,0c0.3,0.8,0.5,1.2-0.7,1.2
		c-1.2,0-1.9-0.7-3.4,1.4C97.1,7.6,94.7,11.3,94.3,8.3z"/>
	<polygon class="st34" points="78,38.1 75.4,36.9 76.9,33.1 79.5,34.4 	"/>
	<polygon class="st34" points="245.5,71.7 241.9,73.6 239,66.6 242.5,64.8 	"/>
</g>
<g>
	<path class="st11" d="M1873.8,29.9c0,0-4.5,26.6-4.2,29.6c0.3,3,5,2,4.9,1.1l6.4-30.5C1880.8,30.1,1878,22.3,1873.8,29.9z"/>
	<path class="st12" d="M1873.3,30.6c0,0,2.6-15,5.4-15.2c0,0,4.7-0.7,4.3,4.4c-0.4,5.1-1.1,7.8-2,10.2c0,0-0.5,1-0.6,2.3
		c-0.1,1.3-1.4,2.1-1.4,1c0.1-1.1,0.4-1.7,0-2.4c-0.4-0.7-0.6-1.2-0.6-1.2c0,0-0.6-0.1-0.6,0.7c0,0.8,0.5,2.2-0.8,1.4
		c-0.4-0.3-0.4-1.6-0.1-2.1c0,0-0.7,0.5-0.8,1.6c-0.1,1.1-0.4,3.1-1.1,2.9c-0.7-0.2-0.8-0.6-0.5-1.8c0.4-1.2,0.8-2.2,0.6-2.8
		c-0.2-0.5-0.5-0.8-0.8-0.1C1874.1,30.1,1873.2,33.5,1873.3,30.6z"/>
	<path class="st13" d="M1874.6,38.6c0,0.3-0.3,0.4-0.5,0.4c-0.2-0.1-0.4-0.3-0.3-0.6c0-0.3,0.3-0.4,0.5-0.4
		C1874.5,38.1,1874.7,38.3,1874.6,38.6z"/>
	<path class="st13" d="M1877,39.1c0,0.3-0.3,0.4-0.5,0.4c-0.2-0.1-0.4-0.3-0.3-0.6c0.1-0.3,0.3-0.4,0.5-0.4
		C1876.9,38.6,1877.1,38.9,1877,39.1z"/>
	<path class="st13" d="M1874.3,40.3c0,0,0.7,2.4,2,0.5L1874.3,40.3z"/>
	<path class="st14" d="M1864.9,58.8l2-0.3c0,0,5.6,6.1,10.4-1.6l1.9-0.3l0.8,11.9c0,0-0.4,3.2-2.9,2c-2.5-1.2-6.1-0.1-7,1.2
		c-0.9,1.3-3.1-0.1-3.1-1.2l-2.3-11.8L1864.9,58.8z"/>
	<polygon class="st15" points="1870.9,62.8 1871.4,66.7 1872.9,66.5 1872.4,62.6 	"/>
	<polygon class="st16" points="1873.1,62.5 1874.7,62.2 1875.2,66.1 1873.6,66.3 	"/>
	<polygon class="st16" points="1870.9,62.8 1871.8,62.7 1872,64.2 1873.3,63.9 1873.4,64.7 1871.9,64.9 1872.1,66.6 1871.4,66.7 	
		"/>
	<polygon class="st17" points="1873.9,62.3 1874.1,63.8 1873.3,63.9 1873.4,64.7 1874.2,64.6 1874.4,66.2 1875.2,66.1 1874.7,62.2 	
		"/>
</g>
<g>
	<path class="st1" d="M1778,81.7c0,0,3,1.5,4.5,2.9c1.5,1.4,2.8,3.4,3.2,4.7c0.4,1.3,8-1,7.8-4.1c-0.2-2.5-0.1-2.5-0.1-2.5
		c0,0-4.5-0.5-4.9-3.7c-0.4-3.2-3.5-4.9-2.2-6.8C1787.5,70.5,1776.9,79,1778,81.7z"/>
	<path class="st21" d="M1776.9,82.1c0,0,3.3,0.8,4.4,0.1c1.1-0.7,1.1-3.5,1.1-3.5l1.6,0.4l-0.5-1.1l1.7-1l1.3-0.8l0.1-3.6l-0.9-1.7
		C1785.7,71,1776.6,74.3,1776.9,82.1z"/>
	<path class="st21" d="M1785.3,90.7c0,0,1.4-2.1,3.4-2.9c2-0.8,2.2-1.6,3.1-3.1c0.9-1.5,1.8-2.3,1.8-2.3S1797.6,92.4,1785.3,90.7z"
		/>
	<path class="st22" d="M1780,78.1L1780,78.1c0.1,0,0.8,0,1.4-0.3c0.3-0.2,0.7-0.4,0.9-0.8c0.3-0.4,0.4-0.9,0.4-1.5l0-0.4
		c0-0.2-0.2-0.3-0.4-0.3c-0.2,0-0.3,0.2-0.3,0.4l0,0.3c0,0.5-0.1,0.8-0.3,1.1c-0.3,0.4-0.7,0.6-1.1,0.7c-0.4,0.1-0.7,0.1-0.8,0.1h0
		c-0.2,0-0.3,0.2-0.3,0.4C1779.7,78,1779.9,78.1,1780,78.1z"/>
	<path class="st22" d="M1779.8,73.2l0,0.2c0,0.7,0.1,2.8,1.7,4.2c0.1,0.1,0.3,0.1,0.5-0.1c0.1-0.2,0.1-0.4-0.1-0.5
		c-1.3-1.1-1.4-3-1.4-3.6l0-0.2c0-0.2-0.1-0.4-0.3-0.4C1780,72.8,1779.9,73,1779.8,73.2z"/>
	<path class="st22" d="M1782.7,83.1l0-0.1L1782.7,83.1L1782.7,83.1l0-0.1L1782.7,83.1L1782.7,83.1c0.1,0,0.7,0,1.5,1
		c0.4,0.5,0.4,0.9,0.5,1.4c0,0.3,0,0.6,0.1,0.9c0.1,0.3,0.2,0.6,0.5,0.9c0.1,0.1,0.3,0.1,0.5,0c0.1-0.1,0.1-0.4,0-0.5
		c-0.2-0.2-0.3-0.4-0.3-0.6c-0.1-0.3-0.1-0.7-0.1-1.1c0-0.5-0.2-1-0.6-1.5c-0.9-1.1-1.8-1.2-2-1.2l-0.1,0c-0.2,0-0.3,0.2-0.3,0.4
		C1782.4,82.9,1782.6,83.1,1782.7,83.1z"/>
	<path class="st23" d="M1784.8,79.6l0-0.1L1784.8,79.6L1784.8,79.6l0-0.1L1784.8,79.6L1784.8,79.6c0.1,0,0.6,0,1.2,0.7
		c0.1,0.1,0.3,0.2,0.5,0c0.1-0.1,0.1-0.4,0-0.5c-0.7-0.8-1.4-0.9-1.6-0.9l-0.1,0c-0.2,0-0.3,0.2-0.3,0.4
		C1784.4,79.5,1784.6,79.7,1784.8,79.6z"/>
	<path class="st24" d="M1787.4,81.8c0,0-0.2,0.2-0.2,0.5c0,0.3,0.1,0.6,0.5,0.9l0.3,0.3l0.3,0.1l0.2,0c0,0,0.1,0,0.2,0.1
		c0.2,0.1,0.4,0.3,0.8,0.6l0.4-0.6c-0.4-0.3-0.7-0.5-0.9-0.7c-0.2-0.1-0.4-0.2-0.5-0.2l-0.2,0v0l0,0l0,0v0l0,0l0,0l-0.1-0.1
		c-0.1-0.1-0.2-0.3-0.2-0.3l0-0.1h-0.1l0,0.1l0.1-0.1h-0.1l0,0.1L1787.4,81.8z"/>
	<polygon class="st25" points="1624.1,57.2 1620,82 1643.1,86.6 1647.2,61.9 	"/>
	<polygon class="st26" points="1617.7,49.9 1624.1,57.2 1647.2,61.9 1639.9,54.4 	"/>
	<polygon class="st27" points="1617.7,49.9 1624.1,57.2 1620,82 1614.1,71.7 	"/>
	<polygon class="st15" points="1626.8,63 1624.1,79.6 1630.8,80.9 1633.5,64.4 	"/>
	<polygon class="st16" points="1636.5,65 1643.2,66.3 1640.4,82.9 1633.8,81.5 	"/>
	<polygon class="st16" points="1626.8,63 1630.7,63.8 1629.7,70.1 1635.5,71.3 1634.9,74.5 1628.6,73.3 1627.4,80.3 1624.1,79.6 	
		"/>
	<polygon class="st17" points="1639.8,65.6 1638.8,71.9 1635.5,71.3 1634.9,74.5 1638.3,75.2 1637.1,82.2 1640.4,82.9 1643.2,66.3 	
		"/>
	<polygon class="st30" points="1680.2,67.3 1685.9,64.6 1683.9,71.9 	"/>
	<polygon class="st30" points="1581,88.7 1585.4,84 1586,91.6 	"/>
	<path class="st32" d="M1729.2,75.2c0,1.9-1.4,3.4-3.1,3.4c-1.7,0-3.1-1.5-3.1-3.4c0-1.9,1.4-3.4,3.1-3.4
		C1727.8,71.7,1729.2,73.2,1729.2,75.2z"/>
	<path class="st46" d="M1660.7,88.5c0,1.9-1.4,3.4-3.1,3.4c-1.7,0-3.1-1.5-3.1-3.4c0-1.9,1.4-3.4,3.1-3.4
		C1659.3,85.1,1660.7,86.6,1660.7,88.5z"/>
	<path class="st47" d="M1602.3,70.8c0,1.9-1.4,3.4-3.1,3.4s-3.1-1.5-3.1-3.4c0-1.9,1.4-3.4,3.1-3.4
		C1601,67.4,1602.3,68.9,1602.3,70.8z"/>
	<path class="st33" d="M1701.7,89.4c0,0,1.5-1.3,2.4-2.5c1-1.3,1.8-4.7,4.4-4.1c2.6,0.5,3.1-1,3.4-0.1c0.3,1,0.7,1.5-0.8,1.5
		s-2.3-0.9-4.2,1.7C1705.1,88.5,1702.2,93,1701.7,89.4z"/>
	<path class="st48" d="M1570,87.9c0,0-0.8-1.8-1.7-3.2c-0.9-1.3-3.8-2.9-2.7-5.6c1-2.7-0.2-3.5,0.7-3.7c0.9-0.1,1.5-0.4,1.1,1.2
		c-0.3,1.6-1.3,2.3,0.6,4.8C1569.9,84,1573.2,88.1,1570,87.9z"/>
</g>
<g>
	<path class="st6" d="M1546.2,17.6c0,0,3.7,0,5.1,1.4c1.4,1.4,4.2,1.5,6.6,5.8c0,0,4.5,4.1,6.4,4.8c1.9,0.6,4.6,3.6,5.9,8.5
		c0,0,2.1,8.5,3.5,10.4c1.5,1.9,2.5,0.3,4,2.8c1.4,2.5,2.7,0.8,3,2.6c0.2,1.7-0.7,5.6-7.5,4.3c0,0-5.3-3.8-7.4-6.6
		c0,0-1.6-1.3-3.9-0.9c-2.3,0.4-3.4-0.3-5.6-0.6c-2.2-0.3-6.3-4.8-8.8-5.5c-2.5-0.8-4-2.3-5.5-3.2c-1.5-0.9-6.8-5.9-4.1-13.1
		C1537.6,28.2,1537.4,20.8,1546.2,17.6z"/>
	<path class="st7" d="M1549.2,18c0,0,1.5,2.9,4.3,3.8c0,0,1.9,0.6,2.8,4.2c0.8,3.6,1,6,1.1,7.9c0.2,1.9-3.1,6.5-4,7.6
		c-0.9,1.1-0.5,1.5-2.5,1.8c-1.9,0.3-4,0.1-5.4-0.2c-1.4-0.2-9.9-4.7-8.7-10.9c1.2-6.2,1.6-7.6,2-8.3c0.4-0.7,4.8-6.1,7-6.1
		C1548,17.7,1548.5,17.8,1549.2,18z"/>
</g>
<g>
	<path class="st6" d="M298.6,51c0,0,2.9-3.8,4.5-5.4c0,0,1.8-6.7,4.2-11.2c0.5-0.9,0.9-1.6,1.4-2.3c3.1-4,7.6-10.7,31.2-12.5
		c0,0,3.4-3.6,5.4-5.1c2-1.6,0.4-0.2,0.2,1.2c-0.2,1.4-3.7,4.3-4.2,6.2c-0.6,1.9-3.2,6.3-4.2,9.7c-1,3.5-8.6,14.4-11.9,15.2
		c-3.3,0.8-9.9,4.5-13,1c0,0-4.2-1.1-6.3-0.8c-2.2,0.3-4.4,1.4-5.5,3.8C299.3,53.1,298.6,51,298.6,51z"/>
	<path class="st7" d="M307.9,33.3c0,0,2.3,6.6,21.5,10c0,0-6.7,7.8-17.2,4.4c-10.5-3.4-7.6-6.9-7.6-6.9L307.9,33.3z"/>
	<path class="st7" d="M314.7,26.2c0,0,0,7.1,18.2,12.8l3.2-5.1c0,0-11.8-1.6-16.3-10.3C319.8,23.6,314.4,25,314.7,26.2z"/>
	<path class="st8" d="M291.1,42.3c0,0,3.6-2.9,5.8-4.5c2.2-1.7,6.3-4.8,7.7-6.3c1.4-1.6,4.1-4.1,4.8-5c0.7-0.9,1-0.3,1.2,0.4
		c0.2,0.7,0.3,0,1.2-0.2c0.4-0.1,9.5-6.4,9.8-6.5c0.6-0.2,0.4-1.8-0.2-1.7c-0.7,0-2.1,0.8-2.5,1.2c-0.5,0.4-2.3,0.8-1.8,0.1
		c0.5-0.7,2.1-2.1,2.7-2.3c0.6-0.2,2.6-0.3,2.9,0.4c0.3,0.7,0.1,3.2-0.1,3.3c-0.3,0.1-0.4,0-0.7,0c-0.3,0.1-1.1,0.5-0.8,0.8
		c0.3,0.2-0.5,0.5-0.5,0.5l-0.8-0.1l-0.5,0.8l-0.8-0.4l-0.3,0.9L317,24l-0.6,0.7l-0.6-0.3l-0.6,1l-0.6-0.1l-0.5,1l-0.6-0.2l-0.3,1.2
		l-1.2-0.3l0.2,1.1l-0.7,0.7l-0.6,0.6c0,0-0.5,0.6-0.7,0.1c-0.3-0.5-1.1,0.8-1.1,0.8s-13.7,14.3-15.9,15
		C293.2,45.3,291,45.4,291.1,42.3z"/>
	<path class="st7" d="M292.3,15.8c0,0-1.2,6.8-2.9,8.3c0,0-1,0.9-0.6,1c0.3,0.1,2.6-1,5.1,0.2c2.6,1.2,3.1,1.2,6.5,0.7
		c3.4-0.5,5.1-1.5,7.4-0.6c2.3,1,3.6,0.8,3.6,1.3c0,0.4,6.3-4.6,6.3-4.6s0.8-1.9-3.1-2.9c-3.8-0.9-8.2-0.4-10,0.4
		c-1.8,0.8-4,1.4-5.8,0.6c-1.8-0.8-2.2-0.9-3.4-1.2C294.2,18.9,292.4,18,292.3,15.8z"/>
</g>
</svg>
